<?xml version="1.0" standalone="no"?>
<!DOCTYPE svg PUBLIC "-//W3C//DTD SVG 20010904//EN"
 "http://www.w3.org/TR/2001/REC-SVG-20010904/DTD/svg10.dtd">
<svg version="1.0" xmlns="http://www.w3.org/2000/svg"
 width="191.000000pt" height="191.000000pt" viewBox="0 0 191.000000 191.000000"
 preserveAspectRatio="xMidYMid meet">
<metadata>
Created by potrace 1.11, written by Peter Selinger 2001-2013
</metadata>
<g transform="translate(0.000000,191.000000) scale(0.100000,-0.100000)"
fill="#000000" stroke="none">
<path d="M789 1319 c-1 -2 -2 -75 -3 -162 -2 -167 2 -181 45 -170 14 4 17 13
15 48 -4 55 4 68 49 71 74 5 109 43 109 115 0 30 -7 47 -27 67 -24 24 -36 27
-107 30 -44 2 -80 3 -81 1z m148 -75 c27 -37 -7 -84 -61 -84 -30 0 -31 1 -31
48 0 38 4 48 20 53 29 9 58 2 72 -17z"/>
<path d="M1080 1168 c-34 -84 -64 -158 -67 -165 -4 -9 4 -13 24 -13 26 0 32 6
46 40 8 22 21 40 29 41 7 0 39 1 70 2 l57 2 16 -42 c15 -38 21 -43 47 -43 20
0 29 4 25 13 -2 6 -33 81 -68 165 -59 143 -64 152 -90 152 -25 0 -30 -9 -89
-152z m104 39 c32 -77 32 -77 -17 -77 l-45 0 21 55 c12 30 23 55 24 55 2 0 9
-15 17 -33z"/>
<path d="M1389 1304 c-1 -22 -1 -307 0 -314 1 -4 48 -5 123 -1 14 0 40 13 57
27 41 34 44 93 6 128 -25 23 -25 23 -5 41 26 23 26 75 1 106 -17 21 -30 24
-100 27 -73 4 -81 2 -82 -14z m139 -75 c5 -27 -21 -49 -58 -49 -23 0 -26 4
-25 38 0 28 5 38 20 43 31 9 60 -6 63 -32z m-7 -109 c11 -6 19 -21 19 -35 0
-14 -8 -29 -19 -35 -23 -12 -70 -14 -72 -2 -4 26 -5 68 -1 75 5 10 50 9 73 -3z"/>
<path d="M1640 1291 c0 -27 1 -28 53 -27 l53 1 -1 -133 c-1 -111 2 -135 15
-141 8 -5 22 -6 30 -2 13 5 16 28 15 139 -1 112 2 132 15 133 8 1 32 2 53 2
34 0 37 3 37 29 l0 28 -135 0 -135 0 0 -29z"/>
<path d="M213 1256 c-55 -18 -102 -48 -139 -88 -52 -59 -91 -138 -66 -138 4 0
17 19 30 43 81 153 261 216 406 142 35 -18 75 -49 99 -77 22 -26 44 -45 48
-42 24 14 -66 108 -138 144 -58 30 -175 37 -240 16z"/>
<path d="M235 1192 c-33 -13 -44 -41 -14 -34 77 20 143 11 160 -20 8 -15 8
-19 0 -14 -6 4 -14 0 -18 -10 -4 -10 0 -20 10 -26 26 -14 20 -31 -7 -24 -32 8
-43 -10 -16 -26 27 -17 25 -28 -5 -28 -32 0 -31 -10 1 -34 l26 -18 84 57 84
57 -22 30 c-28 40 -98 84 -156 97 -56 13 -80 12 -127 -7z"/>
<path d="M137 1136 c-38 -35 -47 -56 -24 -56 22 1 82 69 71 80 -7 7 -22 0 -47
-24z"/>
<path d="M248 1133 c-10 -2 -18 -10 -18 -17 0 -9 16 -13 50 -12 41 1 50 4 50
19 0 13 -8 17 -32 16 -18 -1 -41 -3 -50 -6z"/>
<path d="M165 1080 c-16 -16 -26 -32 -23 -36 7 -7 68 36 68 47 0 20 -20 15
-45 -11z"/>
<path d="M272 1071 c-30 -8 -29 -24 1 -28 27 -4 57 21 35 29 -7 3 -23 2 -36
-1z"/>
<path d="M70 1041 c-6 -13 -6 -22 -1 -26 9 -5 31 24 31 39 0 14 -20 4 -30 -13z"/>
<path d="M205 1039 c-4 -6 -5 -13 -2 -16 7 -7 27 6 27 18 0 12 -17 12 -25 -2z"/>
<path d="M471 967 c-100 -61 -151 -101 -151 -117 0 -19 56 11 159 85 101 73
125 95 103 95 -4 0 -54 -28 -111 -63z"/>
<path d="M120 999 c0 -11 5 -17 10 -14 6 3 10 13 10 21 0 8 -4 14 -10 14 -5 0
-10 -9 -10 -21z"/>
<path d="M275 1010 c-19 -7 -19 -8 -2 -15 19 -8 31 -2 26 13 -2 5 -13 6 -24 2z"/>
<path d="M792 858 c0 -40 3 -58 5 -40 4 28 8 32 33 32 28 0 40 15 40 50 0 20
-19 30 -56 30 -23 0 -24 -2 -22 -72z m58 47 c18 -21 5 -47 -22 -43 -31 4 -40
58 -10 58 11 0 25 -7 32 -15z"/>
<path d="M1356 919 c6 -11 41 -12 47 -1 3 4 -8 7 -24 8 -15 1 -26 -3 -23 -7z"/>
<path d="M1800 918 c0 -5 9 -8 19 -8 11 0 22 3 24 8 3 4 -6 7 -19 7 -13 0 -24
-3 -24 -7z"/>
<path d="M910 870 c-11 -11 -20 -23 -20 -28 0 -20 34 -52 55 -52 42 0 62 70
26 90 -28 14 -38 13 -61 -10z m54 -3 c21 -16 18 -45 -6 -61 -22 -13 -60 18
-51 42 12 32 31 38 57 19z"/>
<path d="M1030 870 c-25 -25 -25 -42 -2 -63 21 -19 40 -21 62 -7 11 7 6 8 -17
4 -28 -6 -34 -3 -42 17 -11 31 11 59 42 52 18 -4 19 -3 7 6 -21 15 -27 14 -50
-9z"/>
<path d="M1125 870 c-24 -27 -13 -68 21 -76 14 -4 30 -2 35 3 7 7 2 9 -14 6
-19 -4 -28 1 -37 17 -15 29 13 63 44 54 17 -4 18 -3 6 5 -22 15 -35 13 -55 -9z"/>
<path d="M1220 839 l0 -54 35 39 35 38 0 -36 c0 -21 3 -35 8 -33 5 4 8 82 3
94 -1 2 -16 -14 -35 -35 l-35 -37 1 33 c1 18 -2 35 -5 39 -4 3 -7 -18 -7 -48z"/>
<path d="M1339 865 c-3 -17 -2 -41 1 -54 5 -24 6 -23 37 15 l32 39 2 -40 2
-40 6 35 c4 19 5 44 2 54 -4 16 -9 14 -35 -19 l-31 -39 -5 39 c-5 39 -6 39
-11 10z"/>
<path d="M1470 872 c-18 -14 -21 -25 -16 -45 7 -28 50 -47 67 -30 5 5 -2 9
-17 8 -15 0 -31 8 -38 18 -9 15 -7 22 12 37 13 11 31 17 40 14 14 -5 15 -4 2
5 -20 14 -24 14 -50 -7z"/>
<path d="M1563 840 c0 -30 2 -43 4 -27 2 15 2 39 0 55 -2 15 -4 2 -4 -28z"/>
<path d="M1600 865 l-23 -25 23 -25 c13 -14 26 -23 28 -20 3 3 -5 16 -18 30
-20 21 -21 25 -7 31 8 3 18 12 21 20 8 20 3 18 -24 -11z"/>
<path d="M1660 847 c0 -25 4 -48 8 -51 4 -2 19 12 32 32 l25 36 3 -32 c2 -18
6 -32 10 -32 6 0 8 55 3 83 0 5 -16 -9 -34 -31 l-34 -40 -1 35 c-2 53 -12 53
-12 0z"/>
<path d="M1782 840 l-1 -55 34 40 35 40 0 -39 c0 -22 2 -37 4 -35 8 8 13 90 6
94 -4 3 -21 -12 -36 -33 l-29 -37 -6 40 c-6 38 -6 37 -7 -15z"/>
<path d="M823 723 c-3 -10 -16 -43 -29 -73 -13 -30 -17 -46 -9 -36 8 11 15 23
15 28 0 4 16 8 35 8 19 0 35 -4 35 -8 0 -5 7 -17 15 -28 14 -17 14 -15 0 19
-47 115 -51 121 -62 90z m26 -33 c9 -28 8 -30 -14 -30 -22 0 -23 2 -12 30 6
17 12 30 13 30 1 0 7 -13 13 -30z"/>
<path d="M920 645 c0 -45 1 -46 28 -43 24 3 27 7 27 43 0 36 -3 40 -27 43 -27
3 -28 2 -28 -43z m48 23 c-7 -19 -38 -22 -38 -4 0 10 9 16 21 16 12 0 19 -5
17 -12z m0 -40 c-7 -19 -38 -22 -38 -4 0 10 9 16 21 16 12 0 19 -5 17 -12z"/>
<path d="M1010 683 c21 -8 28 -22 25 -49 -1 -13 2 -24 7 -24 5 0 7 14 4 31 -3
24 0 32 17 39 17 7 13 9 -23 9 -25 -1 -38 -3 -30 -6z"/>
<path d="M1108 679 c-28 -16 -23 -57 8 -71 31 -14 57 -1 62 31 6 42 -31 63
-70 40z m56 -21 c8 -14 7 -21 -6 -34 -22 -22 -58 -10 -58 21 0 37 43 46 64 13z"/>
<path d="M1212 678 c-15 -15 -15 -51 0 -66 14 -14 44 -16 52 -4 3 5 -4 8 -16
8 -29 -1 -46 28 -28 49 7 9 22 14 32 12 10 -3 18 -1 18 4 0 13 -44 11 -58 -3z"/>
<path d="M1308 679 c-27 -15 -23 -57 6 -71 32 -14 54 -5 62 27 11 44 -27 69
-68 44z m56 -21 c8 -14 7 -21 -6 -34 -30 -30 -75 9 -48 42 16 18 39 15 54 -8z"/>
<path d="M1410 675 c-1 -11 -3 -27 -5 -36 -1 -9 1 -23 6 -30 6 -10 9 -8 9 9 0
27 4 28 30 2 24 -24 43 -25 60 -5 44 53 -19 106 -66 54 l-19 -21 -6 24 c-6 20
-7 21 -9 3z m95 -30 c0 -23 -5 -30 -19 -30 -28 0 -43 29 -26 50 21 25 45 14
45 -20z"/>
<path d="M1555 681 c-3 -7 0 -8 9 -5 26 10 42 -7 21 -23 -18 -12 -18 -13 -1
-13 10 0 16 -6 13 -12 -2 -7 -14 -13 -26 -12 -11 0 -21 -3 -21 -8 0 -5 12 -8
28 -6 24 3 27 7 27 43 0 33 -4 41 -22 43 -11 2 -24 -2 -28 -7z"/>
</g>
</svg>
