<svg width="185" height="167" viewBox="0 0 185 167" fill="none" xmlns="http://www.w3.org/2000/svg">
<path d="M0.416656 9.83333C0.416656 7.39113 1.38682 5.04896 3.11371 3.32206C4.84061 1.59516 7.18279 0.625 9.62499 0.625H175.375C177.817 0.625 180.159 1.59516 181.886 3.32206C183.613 5.04896 184.583 7.39113 184.583 9.83333C184.583 12.2755 183.613 14.6177 181.886 16.3446C180.159 18.0715 177.817 19.0417 175.375 19.0417H9.62499C7.18279 19.0417 4.84061 18.0715 3.11371 16.3446C1.38682 14.6177 0.416656 12.2755 0.416656 9.83333V9.83333ZM9.62499 92.7083H175.375C177.817 92.7083 180.159 91.7382 181.886 90.0113C183.613 88.2844 184.583 85.9422 184.583 83.5C184.583 81.0578 183.613 78.7156 181.886 76.9887C180.159 75.2618 177.817 74.2917 175.375 74.2917H9.62499C7.18279 74.2917 4.84061 75.2618 3.11371 76.9887C1.38682 78.7156 0.416656 81.0578 0.416656 83.5C0.416656 85.9422 1.38682 88.2844 3.11371 90.0113C4.84061 91.7382 7.18279 92.7083 9.62499 92.7083V92.7083ZM9.62499 166.375H175.375C177.817 166.375 180.159 165.405 181.886 163.678C183.613 161.951 184.583 159.609 184.583 157.167C184.583 154.724 183.613 152.382 181.886 150.655C180.159 148.928 177.817 147.958 175.375 147.958H9.62499C7.18279 147.958 4.84061 148.928 3.11371 150.655C1.38682 152.382 0.416656 154.724 0.416656 157.167C0.416656 159.609 1.38682 161.951 3.11371 163.678C4.84061 165.405 7.18279 166.375 9.62499 166.375V166.375Z" fill="white"/>
</svg>
