<svg width="32" height="25" viewBox="0 0 32 25" fill="none" xmlns="http://www.w3.org/2000/svg">
<path d="M22.5553 9.1831H21.4383C21.1491 9.1831 20.9145 9.41757 20.9145 9.70684C20.9145 9.99606 21.149 10.2306 21.4383 10.2306H22.5553C22.8445 10.2306 23.0791 9.99612 23.0791 9.70684C23.079 9.41757 22.8445 9.1831 22.5553 9.1831Z" fill="#1095BF"/>
<path fill-rule="evenodd" clip-rule="evenodd" d="M23.3242 9.70684C23.3242 10.1315 22.9799 10.4757 22.5553 10.4757H21.4383C21.0136 10.4757 20.6694 10.1314 20.6694 9.70684C20.6694 9.28219 21.0137 8.93801 21.4383 8.93801H22.5553C22.9799 8.93801 23.3241 9.28228 23.3242 9.70684ZM23.0791 9.70684C23.0791 9.99612 22.8445 10.2306 22.5553 10.2306H21.4383C21.149 10.2306 20.9145 9.99606 20.9145 9.70684C20.9145 9.41757 21.1491 9.1831 21.4383 9.1831H22.5553C22.8445 9.1831 23.079 9.41757 23.0791 9.70684Z" fill="#1095BF"/>
<path d="M22.693 13.5098C22.4864 13.2452 22.1755 13.0935 21.8399 13.0935H9.86372C9.52811 13.0935 9.21719 13.2452 9.01059 13.5098C8.80404 13.7743 8.73223 14.1128 8.81367 14.4384L9.09301 15.5557C9.21372 16.0384 9.64552 16.3755 10.1431 16.3755H21.5606C22.0581 16.3755 22.4899 16.0384 22.6106 15.5556L22.89 14.4384C22.9713 14.1127 22.8995 13.7743 22.693 13.5098ZM21.8738 14.1844L21.5944 15.3016C21.5905 15.3173 21.5766 15.3281 21.5606 15.3281H10.1431C10.127 15.3281 10.113 15.3172 10.1092 15.3017L9.82982 14.1844C9.82854 14.1795 9.82567 14.1679 9.83616 14.1545C9.84665 14.141 9.85859 14.141 9.86365 14.141H21.8399C21.845 14.141 21.8569 14.141 21.8674 14.1545C21.8778 14.1679 21.875 14.1794 21.8738 14.1844Z" fill="#1095BF"/>
<path fill-rule="evenodd" clip-rule="evenodd" d="M8.81743 13.3589C9.07046 13.0349 9.45261 12.8484 9.86372 12.8484H21.8399C22.2509 12.8484 22.6332 13.0349 22.8862 13.3589C23.1392 13.6829 23.2274 14.0989 23.1277 14.4978L22.8484 15.6151C22.7004 16.2069 22.1706 16.6206 21.5606 16.6206H10.1431C9.53306 16.6206 9.00323 16.2069 8.85524 15.6152L8.5759 14.4978C8.5759 14.4978 8.57591 14.4979 8.5759 14.4978C8.47614 14.099 8.56447 13.6829 8.81743 13.3589ZM9.09301 15.5557L8.81367 14.4384C8.73223 14.1128 8.80404 13.7743 9.01059 13.5098C9.21719 13.2452 9.52811 13.0935 9.86372 13.0935H21.8399C22.1755 13.0935 22.4864 13.2452 22.693 13.5098C22.8995 13.7743 22.9713 14.1127 22.89 14.4384L22.6106 15.5556C22.4899 16.0384 22.0581 16.3755 21.5606 16.3755H10.1431C9.64552 16.3755 9.21372 16.0384 9.09301 15.5557ZM9.86365 14.141C9.85859 14.141 9.84665 14.141 9.83616 14.1545C9.82567 14.1679 9.82854 14.1795 9.82982 14.1844L10.1092 15.3017C10.113 15.3172 10.127 15.3281 10.1431 15.3281H21.5606C21.5766 15.3281 21.5905 15.3173 21.5944 15.3016L21.8738 14.1844C21.875 14.1794 21.8778 14.1679 21.8674 14.1545C21.8569 14.141 21.845 14.141 21.8399 14.141H9.86365ZM21.5707 14.3861H10.1329L10.3071 15.083H21.3964L21.5707 14.3861ZM21.3566 15.2424C21.3565 15.2425 21.3566 15.2422 21.3566 15.2424V15.2424Z" fill="#1095BF"/>
<path d="M29.8176 10.2305C30.7224 10.2305 31.4585 9.4944 31.4585 8.58957C31.4585 7.68475 30.7224 6.94861 29.8176 6.94861H29.259C28.4431 6.94861 27.7646 7.54727 27.639 8.32828L26.2419 4.48616C25.927 3.62005 25.0962 3.03821 24.1747 3.03821H20.1915L19.8967 1.56429C19.7439 0.799869 19.0671 0.245098 18.2876 0.245098H13.4159C12.6364 0.245098 11.9597 0.799869 11.8068 1.56429L11.5121 3.03821H7.52886C6.60734 3.03821 5.77658 3.62011 5.46171 4.4861L4.06466 8.32822C3.93914 7.54728 3.26061 6.94861 2.44473 6.94861H1.88612C0.981235 6.94861 0.245098 7.68475 0.245098 8.58957C0.245098 9.4944 0.981235 10.2305 1.88606 10.2305H2.44467C2.70261 10.2305 2.94671 10.1705 3.1641 10.064L1.96678 11.5608C1.57697 12.048 1.36232 12.6599 1.36232 13.2838V23.6726C1.36232 24.2694 1.84784 24.7549 2.44467 24.7549H4.12056C4.7174 24.7549 5.20291 24.2694 5.20291 23.6726V21.4031H26.5007V23.6726C26.5007 24.2694 26.9862 24.7549 27.583 24.7549H29.2589C29.8557 24.7549 30.3413 24.2694 30.3413 23.6726V13.2838C30.3413 12.6599 30.1266 12.0479 29.7368 11.5608L28.5395 10.064C28.7569 10.1705 29.001 10.2305 29.2589 10.2305H29.8176ZM2.44473 9.18312H1.88612C1.55881 9.18312 1.29258 8.91689 1.29258 8.58957C1.29258 8.26226 1.55881 7.99603 1.88612 7.99603H2.44473C2.77205 7.99603 3.03827 8.26226 3.03827 8.58957C3.03827 8.91683 2.77198 9.18312 2.44473 9.18312ZM12.8339 1.76962C12.8892 1.49315 13.134 1.29246 13.4159 1.29246H18.2876C18.5696 1.29246 18.8144 1.49315 18.8696 1.76962L19.1233 3.03821H12.5802L12.8339 1.76962ZM4.1555 23.6726C4.1555 23.6918 4.13983 23.7075 4.12056 23.7075H2.44467C2.42541 23.7075 2.40974 23.6918 2.40974 23.6726V21.0762C2.74504 21.2833 3.13972 21.4031 3.56189 21.4031H4.15544L4.1555 23.6726ZM22.0317 20.3557H9.67198V19.2035C9.67198 19.1843 9.68765 19.1686 9.70692 19.1686H21.9968C22.016 19.1686 22.0317 19.1843 22.0317 19.2035L22.0317 20.3557ZM29.2938 23.6726C29.2938 23.6918 29.2782 23.7075 29.2589 23.7075H27.583C27.5637 23.7075 27.5481 23.6918 27.5481 23.6726V21.4031H28.1416C28.5638 21.4031 28.9585 21.2833 29.2938 21.0762L29.2938 23.6726ZM28.919 12.2151C29.1607 12.5173 29.2939 12.8968 29.2939 13.2838V19.2035C29.2939 19.8388 28.777 20.3557 28.1417 20.3557H23.0791V19.2035C23.0791 18.6067 22.5936 18.1212 21.9967 18.1212H9.70692C9.11008 18.1212 8.62457 18.6067 8.62457 19.2035V20.3557H3.56195C2.92665 20.3557 2.4098 19.8388 2.4098 19.2035V13.2838C2.4098 12.8968 2.54294 12.5173 2.78473 12.2151L4.37228 10.2305H19.2036C19.4928 10.2305 19.7273 9.99607 19.7273 9.70679C19.7273 9.41758 19.4929 9.18305 19.2036 9.18305H4.86834L6.44621 4.84396C6.61112 4.39033 7.04628 4.08557 7.52899 4.08557H24.1748C24.6575 4.08557 25.0926 4.39039 25.2575 4.84396L26.8354 9.18305H24.79C24.5008 9.18305 24.2663 9.41752 24.2663 9.70679C24.2663 9.99601 24.5007 10.2305 24.79 10.2305H27.3315L28.919 12.2151ZM28.6654 8.58957C28.6654 8.26226 28.9316 7.99603 29.2589 7.99603H29.8175C30.1448 7.99603 30.4111 8.26226 30.4111 8.58957C30.4111 8.91689 30.1448 9.18312 29.8175 9.18312H29.2589C28.9317 9.18312 28.6654 8.91683 28.6654 8.58957Z" fill="#1095BF"/>
<path fill-rule="evenodd" clip-rule="evenodd" d="M11.8068 1.56429C11.9597 0.799869 12.6364 0.245098 13.4159 0.245098H18.2876C19.0671 0.245098 19.7439 0.799869 19.8967 1.56429L20.1915 3.03821H24.1747C25.0962 3.03821 25.927 3.62005 26.2419 4.48616L27.639 8.32828C27.6613 8.18971 27.7009 8.05688 27.7557 7.93212C28.0097 7.35369 28.5878 6.94861 29.259 6.94861H29.8176C30.7224 6.94861 31.4585 7.68475 31.4585 8.58957C31.4585 9.4944 30.7224 10.2305 29.8176 10.2305H29.2589C29.1588 10.2305 29.0607 10.2215 28.9655 10.2042C28.8154 10.1769 28.6725 10.1292 28.5395 10.064L29.7368 11.5608C30.1266 12.0479 30.3413 12.6599 30.3413 13.2838V23.6726C30.3413 24.2694 29.8557 24.7549 29.2589 24.7549H27.583C26.9862 24.7549 26.5007 24.2694 26.5007 23.6726V21.4031H5.20291V23.6726C5.20291 24.2694 4.7174 24.7549 4.12056 24.7549H2.44467C1.84784 24.7549 1.36232 24.2694 1.36232 23.6726V13.2838C1.36232 12.6599 1.57697 12.048 1.96678 11.5608L3.1641 10.064C3.03112 10.1292 2.88814 10.1769 2.73811 10.2042C2.64289 10.2215 2.54482 10.2305 2.44467 10.2305H1.88606C0.981235 10.2305 0.245098 9.4944 0.245098 8.58957C0.245098 7.68475 0.981235 6.94861 1.88612 6.94861H2.44473C3.11583 6.94861 3.694 7.35366 3.94792 7.93203C4.0027 8.0568 4.04239 8.18964 4.06466 8.32822L5.46171 4.4861C5.77658 3.62011 6.60734 3.03821 7.52886 3.03821H11.5121L11.8068 1.56429ZM11.3111 2.79311L11.5665 1.51623C11.7423 0.637253 12.5196 0 13.4159 0H18.2876C19.1839 0 19.9613 0.637204 20.137 1.51622C20.137 1.51623 20.137 1.51621 20.137 1.51622L20.3924 2.79311H24.1747C25.1993 2.79311 26.1221 3.43943 26.4722 4.4024L27.6421 7.61965C27.9722 7.0712 28.5731 6.70351 29.259 6.70351H29.8176C30.8578 6.70351 31.7036 7.54938 31.7036 8.58957C31.7036 9.62976 30.8578 10.4756 29.8176 10.4756H29.2589C29.2329 10.4756 29.2071 10.4751 29.1813 10.4741L29.9282 11.4076C29.9282 11.4076 29.9282 11.4076 29.9282 11.4076C30.3527 11.9383 30.5864 12.6042 30.5864 13.2838V23.6726C30.5864 24.4048 29.9911 25 29.2589 25H27.583C26.8508 25 26.2556 24.4048 26.2556 23.6726V21.6482H5.44801V23.6726C5.44801 24.4048 4.85276 25 4.12056 25H2.44467C1.71247 25 1.11722 24.4048 1.11722 23.6726V13.2838C1.11722 12.6042 1.35082 11.9383 1.77538 11.4077C1.77539 11.4077 1.77538 11.4077 1.77538 11.4077L2.52223 10.4741C2.49651 10.4751 2.47065 10.4756 2.44467 10.4756H1.88606C0.845871 10.4756 0 9.62976 0 8.58957C0 7.54938 0.845877 6.70351 1.88612 6.70351H2.44473C3.1306 6.70351 3.73149 7.07117 4.06154 7.61956L5.23136 4.40235C5.58146 3.43949 6.50427 2.79311 7.52886 2.79311H11.3111ZM18.6292 1.81764C18.5969 1.65577 18.4527 1.53755 18.2876 1.53755H13.4159C13.2509 1.53755 13.1067 1.65575 13.0743 1.81769L12.8792 2.79311H18.8243L18.6292 1.81764ZM19.1233 3.03821H12.5802L12.8339 1.76962C12.8892 1.49315 13.134 1.29246 13.4159 1.29246H18.2876C18.5696 1.29246 18.8144 1.49315 18.8696 1.76962L19.1233 3.03821ZM3.91034 23.4624V21.6482H3.56189C3.24166 21.6482 2.93546 21.5861 2.65484 21.4735V23.4624H3.91034ZM2.40974 23.6726C2.40974 23.6918 2.42541 23.7075 2.44467 23.7075H4.12056C4.13913 23.7075 4.15436 23.6929 4.15544 23.6746C4.15548 23.6739 4.1555 23.6733 4.1555 23.6726L4.15544 21.4031H3.56189C3.23865 21.4031 2.93153 21.3329 2.65484 21.207C2.57015 21.1685 2.48831 21.1247 2.40974 21.0762V23.6726ZM29.0487 23.4624V21.4735C28.7681 21.5861 28.4619 21.6482 28.1416 21.6482H27.7932V23.4624H29.0487ZM29.0487 21.207C29.1334 21.1685 29.2152 21.1247 29.2938 21.0762L29.2938 23.6726C29.2938 23.6733 29.2938 23.674 29.2938 23.6747C29.2927 23.6929 29.2775 23.7075 29.2589 23.7075H27.583C27.5637 23.7075 27.5481 23.6918 27.5481 23.6726V21.4031H28.1416C28.4649 21.4031 28.772 21.3329 29.0487 21.207ZM2.78473 12.2151C2.54294 12.5173 2.4098 12.8968 2.4098 13.2838V19.2035C2.4098 19.8388 2.92665 20.3557 3.56195 20.3557H8.62457V19.2035C8.62457 18.6067 9.11008 18.1212 9.70692 18.1212H21.9967C22.5936 18.1212 23.0791 18.6067 23.0791 19.2035V20.3557H28.1417C28.777 20.3557 29.2939 19.8388 29.2939 19.2035V13.2838C29.2939 12.8968 29.1607 12.5173 28.919 12.2151L27.3315 10.2305H24.79C24.5007 10.2305 24.2663 9.99601 24.2663 9.70679C24.2663 9.41752 24.5008 9.18305 24.79 9.18305H26.8354L25.2575 4.84396C25.0926 4.39039 24.6575 4.08557 24.1748 4.08557H7.52899C7.04628 4.08557 6.61112 4.39033 6.44621 4.84396L4.86834 9.18305H19.2036C19.4929 9.18305 19.7273 9.41758 19.7273 9.70679C19.7273 9.99607 19.4928 10.2305 19.2036 10.2305H4.37228L2.78473 12.2151ZM4.49009 10.4756L2.97612 12.3682C2.76911 12.6269 2.6549 12.9525 2.6549 13.2838V19.2035C2.6549 19.7035 3.06201 20.1106 3.56195 20.1106H8.37947V19.2035C8.37947 18.4713 8.97472 17.8761 9.70692 17.8761H21.9967C22.7289 17.8761 23.3242 18.4713 23.3242 19.2035V20.1106H28.1417C28.6417 20.1106 29.0488 19.7035 29.0488 19.2035V13.2838C29.0488 12.9525 28.9346 12.627 28.7276 12.3682C28.7276 12.3682 28.7276 12.3682 28.7276 12.3682L27.2137 10.4756H24.79C24.3654 10.4756 24.0212 10.1314 24.0212 9.70679C24.0212 9.28214 24.3655 8.93796 24.79 8.93796H26.4855L25.0272 4.92774C24.8975 4.571 24.5544 4.33067 24.1748 4.33067H7.52899C7.14932 4.33067 6.80624 4.57097 6.67656 4.9277L5.21827 8.93796H19.2036C19.6283 8.93796 19.9724 9.28224 19.9724 9.70679C19.9724 10.1314 19.6282 10.4756 19.2036 10.4756H4.49009ZM1.88612 8.93802H2.44473C2.63662 8.93802 2.79318 8.78146 2.79318 8.58957C2.79318 8.39762 2.63668 8.24113 2.44473 8.24113H1.88612C1.69417 8.24113 1.53768 8.39762 1.53768 8.58957C1.53768 8.78152 1.69417 8.93802 1.88612 8.93802ZM9.91708 20.1106H21.7866V19.4137H9.91708V20.1106ZM29.2589 8.24113C29.067 8.24113 28.9105 8.39762 28.9105 8.58957C28.9105 8.78146 29.067 8.93802 29.2589 8.93802H29.8175C30.0095 8.93802 30.166 8.78152 30.166 8.58957C30.166 8.39762 30.0095 8.24113 29.8175 8.24113H29.2589ZM1.88612 9.18312H2.44473C2.77198 9.18312 3.03827 8.91683 3.03827 8.58957C3.03827 8.26226 2.77205 7.99603 2.44473 7.99603H1.88612C1.55881 7.99603 1.29258 8.26226 1.29258 8.58957C1.29258 8.91689 1.55881 9.18312 1.88612 9.18312ZM22.0317 20.3557L22.0317 19.2035C22.0317 19.1843 22.016 19.1686 21.9968 19.1686H9.70692C9.68765 19.1686 9.67198 19.1843 9.67198 19.2035V20.3557H22.0317ZM29.2589 7.99603C28.9316 7.99603 28.6654 8.26226 28.6654 8.58957C28.6654 8.91683 28.9317 9.18312 29.2589 9.18312H29.8175C30.1448 9.18312 30.4111 8.91689 30.4111 8.58957C30.4111 8.26226 30.1448 7.99603 29.8175 7.99603H29.2589Z" fill="#1095BF"/>
<path d="M5.79644 17.0039C5.1996 17.0039 4.71409 17.4894 4.71409 18.0863C4.71409 18.6831 5.1996 19.1686 5.79644 19.1686C6.39327 19.1686 6.87879 18.6831 6.87879 18.0863C6.87879 17.4894 6.39327 17.0039 5.79644 17.0039Z" fill="#1095BF"/>
<path fill-rule="evenodd" clip-rule="evenodd" d="M4.46899 18.0863C4.46899 17.3541 5.06424 16.7588 5.79644 16.7588C6.52864 16.7588 7.12388 17.3541 7.12388 18.0863C7.12388 18.8185 6.52864 19.4137 5.79644 19.4137C5.06424 19.4137 4.46899 18.8185 4.46899 18.0863ZM4.71409 18.0863C4.71409 17.4894 5.1996 17.0039 5.79644 17.0039C6.39327 17.0039 6.87879 17.4894 6.87879 18.0863C6.87879 18.6831 6.39327 19.1686 5.79644 19.1686C5.1996 19.1686 4.71409 18.6831 4.71409 18.0863Z" fill="#1095BF"/>
<path d="M25.9071 17.0039C25.3103 17.0039 24.8248 17.4894 24.8248 18.0863C24.8248 18.6831 25.3103 19.1686 25.9071 19.1686C26.504 19.1686 26.9895 18.6831 26.9895 18.0863C26.9895 17.4894 26.5039 17.0039 25.9071 17.0039Z" fill="#1095BF"/>
<path fill-rule="evenodd" clip-rule="evenodd" d="M24.5797 18.0863C24.5797 17.3541 25.1749 16.7588 25.9071 16.7588C26.6393 16.7588 27.2346 17.354 27.2346 18.0863C27.2346 18.8185 26.6393 19.4137 25.9071 19.4137C25.1749 19.4137 24.5797 18.8185 24.5797 18.0863ZM24.8248 18.0863C24.8248 17.4894 25.3103 17.0039 25.9071 17.0039C26.5039 17.0039 26.9895 17.4894 26.9895 18.0863C26.9895 18.6831 26.504 19.1686 25.9071 19.1686C25.3103 19.1686 24.8248 18.6831 24.8248 18.0863Z" fill="#1095BF"/>
<path d="M5.51721 12.5349C4.45833 12.5349 3.59691 13.3963 3.59691 14.4552C3.59691 15.5141 4.45833 16.3755 5.51721 16.3755C6.57609 16.3755 7.43751 15.5141 7.43751 14.4552C7.43751 13.3963 6.57609 12.5349 5.51721 12.5349ZM5.51721 15.328C5.0359 15.328 4.64433 14.9365 4.64433 14.4552C4.64433 13.9738 5.03584 13.5823 5.51721 13.5823C5.99858 13.5823 6.39009 13.9738 6.39009 14.4552C6.39009 14.9365 5.99852 15.328 5.51721 15.328Z" fill="#1095BF"/>
<path fill-rule="evenodd" clip-rule="evenodd" d="M3.35182 14.4552C3.35182 13.261 4.32297 12.2898 5.51721 12.2898C6.71145 12.2898 7.68261 13.261 7.68261 14.4552C7.68261 15.6495 6.71145 16.6206 5.51721 16.6206C4.32297 16.6206 3.35182 15.6495 3.35182 14.4552ZM4.88943 14.4552C4.88943 14.8012 5.17125 15.0829 5.51721 15.0829C5.86317 15.0829 6.14499 14.8012 6.14499 14.4552C6.14499 14.1091 5.86322 13.8274 5.51721 13.8274C5.17121 13.8274 4.88943 14.1091 4.88943 14.4552ZM3.59691 14.4552C3.59691 13.3963 4.45833 12.5349 5.51721 12.5349C6.57609 12.5349 7.43751 13.3963 7.43751 14.4552C7.43751 15.5141 6.57609 16.3755 5.51721 16.3755C4.45833 16.3755 3.59691 15.5141 3.59691 14.4552ZM4.64433 14.4552C4.64433 14.9365 5.0359 15.328 5.51721 15.328C5.99852 15.328 6.39009 14.9365 6.39009 14.4552C6.39009 13.9738 5.99858 13.5823 5.51721 13.5823C5.03584 13.5823 4.64433 13.9738 4.64433 14.4552Z" fill="#1095BF"/>
<path d="M26.1865 12.5349C25.1276 12.5349 24.2662 13.3963 24.2662 14.4552C24.2662 15.5141 25.1276 16.3755 26.1865 16.3755C27.2454 16.3755 28.1068 15.5141 28.1068 14.4552C28.1068 13.3963 27.2454 12.5349 26.1865 12.5349ZM26.1865 15.328C25.7052 15.328 25.3136 14.9365 25.3136 14.4552C25.3136 13.9738 25.7051 13.5823 26.1865 13.5823C26.6678 13.5823 27.0594 13.9738 27.0594 14.4552C27.0594 14.9365 26.6679 15.328 26.1865 15.328Z" fill="#1095BF"/>
<path fill-rule="evenodd" clip-rule="evenodd" d="M24.0211 14.4552C24.0211 13.261 24.9922 12.2898 26.1865 12.2898C27.3807 12.2898 28.3519 13.261 28.3519 14.4552C28.3519 15.6495 27.3807 16.6206 26.1865 16.6206C24.9922 16.6206 24.0211 15.6495 24.0211 14.4552ZM25.5587 14.4552C25.5587 14.8012 25.8405 15.0829 26.1865 15.0829C26.5325 15.0829 26.8143 14.8012 26.8143 14.4552C26.8143 14.1092 26.5324 13.8274 26.1865 13.8274C25.8405 13.8274 25.5587 14.1091 25.5587 14.4552ZM24.2662 14.4552C24.2662 13.3963 25.1276 12.5349 26.1865 12.5349C27.2454 12.5349 28.1068 13.3963 28.1068 14.4552C28.1068 15.5141 27.2454 16.3755 26.1865 16.3755C25.1276 16.3755 24.2662 15.5141 24.2662 14.4552ZM25.3136 14.4552C25.3136 14.9365 25.7052 15.328 26.1865 15.328C26.6679 15.328 27.0594 14.9365 27.0594 14.4552C27.0594 13.9738 26.6678 13.5823 26.1865 13.5823C25.7051 13.5823 25.3136 13.9738 25.3136 14.4552Z" fill="#1095BF"/>
</svg>
