<svg width="25" height="25" viewBox="0 0 25 25" fill="none" xmlns="http://www.w3.org/2000/svg">
<path d="M21.3379 16.1621H20.4795C20.1771 15.3097 19.363 14.6973 18.4082 14.6973C17.4534 14.6973 16.6393 15.3097 16.3369 16.1621H14.7461C13.9384 16.1621 13.2812 15.505 13.2812 14.6973C13.2812 13.8896 13.9384 13.2324 14.7461 13.2324H19.873C20.1042 13.2324 20.326 13.119 20.4611 12.9366L23.9767 8.20078C24.6461 7.30835 25 6.24541 25 5.12695C25 2.29995 22.7 0 19.873 0C17.046 0 14.7461 2.29995 14.7461 5.12695C14.7461 6.24473 15.0995 7.30703 15.7682 8.19917L18.4172 11.7676H14.7461C13.1307 11.7676 11.8164 13.0818 11.8164 14.6973C11.8164 16.3127 13.1307 17.627 14.7461 17.627H16.3369C16.6393 18.4794 17.4534 19.0918 18.4082 19.0918C19.363 19.0918 20.1771 18.4794 20.4795 17.627H21.3379C22.5495 17.627 23.5352 18.6126 23.5352 19.8242C23.5352 21.0417 22.529 22.0703 21.3379 22.0703H16.085C15.7826 21.2179 14.9685 20.6055 14.0137 20.6055C13.0588 20.6055 12.2447 21.2179 11.9424 22.0703H6.58281L9.23057 18.5035C9.90005 17.6111 10.2539 16.5481 10.2539 15.4297C10.2539 12.6027 7.95396 10.3027 5.12695 10.3027C2.29995 10.3027 0 12.6027 0 15.4297C0 16.5481 0.353857 17.6111 1.02114 18.5006L4.52871 23.2256C4.66089 23.4126 4.88086 23.5352 5.12637 23.5352C5.1291 23.5352 5.13179 23.5352 5.13457 23.5352H11.9424C12.2447 24.3876 13.0588 25 14.0137 25C14.9685 25 15.7826 24.3876 16.085 23.5352H21.3379C22.3163 23.5352 23.238 23.1435 23.9333 22.4322C24.6211 21.7285 25 20.8022 25 19.8242C25 17.8049 23.3572 16.1621 21.3379 16.1621ZM16.9434 7.32471C16.9427 7.32373 16.942 7.32275 16.9412 7.32178C16.4635 6.68491 16.2109 5.92593 16.2109 5.12695C16.2109 3.10767 17.8538 1.46484 19.873 1.46484C21.8923 1.46484 23.5352 3.10767 23.5352 5.12695C23.5352 5.92593 23.2826 6.68491 22.8027 7.32471L19.873 11.2712L16.9434 7.32471ZM18.4082 17.627C18.0043 17.627 17.6758 17.2984 17.6758 16.8945C17.6758 16.4907 18.0043 16.1621 18.4082 16.1621C18.8121 16.1621 19.1406 16.4907 19.1406 16.8945C19.1406 17.2984 18.8121 17.627 18.4082 17.627ZM5.12695 21.5739L2.19512 17.6245C1.71738 16.9876 1.46484 16.2287 1.46484 15.4297C1.46484 13.4104 3.10767 11.7676 5.12695 11.7676C7.14624 11.7676 8.78906 13.4104 8.78906 15.4297C8.78906 16.2287 8.53652 16.9876 8.05659 17.6274L5.12695 21.5739ZM14.0137 23.5352C13.6098 23.5352 13.2812 23.2066 13.2812 22.8027C13.2812 22.3989 13.6098 22.0703 14.0137 22.0703C14.4175 22.0703 14.7461 22.3989 14.7461 22.8027C14.7461 23.2066 14.4175 23.5352 14.0137 23.5352Z" fill="#1095BF"/>
</svg>
